<svg width="14" height="14" viewBox="0 0 14 14" fill="none" xmlns="http://www.w3.org/2000/svg">
<g clip-path="url(#clip0_100_143)">
<path d="M7 12.25C9.8995 12.25 12.25 9.8995 12.25 7C12.25 4.10051 9.8995 1.75 7 1.75C4.10051 1.75 1.75 4.10051 1.75 7C1.75 9.8995 4.10051 12.25 7 12.25Z" stroke="#413F3F" stroke-width="0.875" stroke-linecap="round" stroke-linejoin="round"/>
<path d="M8.75023 8.3126C8.47471 8.67981 8.09064 8.95103 7.65242 9.08785C7.21421 9.22467 6.74405 9.22015 6.30854 9.07493C5.87303 8.92972 5.49425 8.65117 5.22584 8.27873C4.95743 7.90629 4.81299 7.45885 4.81299 6.99977C4.81299 6.54069 4.95742 6.09324 5.22582 5.7208C5.49423 5.34836 5.87301 5.06981 6.30852 4.92459C6.74402 4.77936 7.21418 4.77484 7.6524 4.91165C8.09062 5.04847 8.47469 5.31968 8.75021 5.68689" stroke="#413F3F" stroke-width="0.875" stroke-linecap="round" stroke-linejoin="round"/>
</g>
<defs>
<clipPath id="clip0_100_143">
<rect width="14" height="14" fill="white"/>
</clipPath>
</defs>
</svg>
