<svg width="478" height="450" viewBox="0 0 478 450" fill="none" xmlns="http://www.w3.org/2000/svg">
<g filter="url(#filter0_d_184_4)">
<path d="M31.2421 208.994L6.24842 215.226V134.729L31.2421 128.498V208.994ZM68.2485 160.7L66.7905 200.131L40.6513 206.648L45.4418 124.957L78.0377 116.83L87.7227 155.415L88.66 155.181L98.345 111.767L131.045 103.614L135.731 182.942L109.592 189.459L108.134 150.755L107.301 150.963L97.7202 192.419L78.6625 197.171L68.9775 160.518L68.2485 160.7ZM166.521 162.493L163.709 175.966L137.362 182.536L157.565 97.002L196.201 87.369L216.404 162.828L190.057 169.397L187.141 157.352L166.521 162.493ZM177.56 116.702L176.206 117.04L171.103 140.851L182.559 137.995L177.56 116.702ZM261.231 127.932V124.497L254.878 126.081V106.333L284.975 98.8289V141.868C275.116 148.189 264.876 152.675 254.254 155.323C246.964 157.141 240.924 157.752 236.133 157.158C231.412 156.546 227.663 154.833 224.886 152.02C222.109 149.134 220.165 145.219 219.054 140.272C218.013 135.237 217.492 129.213 217.492 122.201C217.492 114.76 218.152 108.227 219.471 102.604C220.79 96.9082 222.977 91.9983 226.032 87.8737C229.086 83.6775 233.148 80.1606 238.216 77.3228C243.284 74.485 249.567 72.1314 257.065 70.2619C258.732 69.8464 260.676 69.4691 262.897 69.1298C265.188 68.7017 267.479 68.3809 269.771 68.1674C272.062 67.8824 274.214 67.7035 276.227 67.6309C278.31 67.4693 279.976 67.4474 281.226 67.5651L277.477 88.2483C274.075 88.5241 270.847 88.8997 267.792 89.3751C264.737 89.779 261.891 90.3098 259.252 90.9676C253.768 92.3351 249.914 93.7251 247.693 95.1377C245.471 96.5502 244.36 98.5445 244.36 101.12V137.612L252.587 135.561C255.642 134.799 257.829 133.932 259.148 132.959C260.537 131.897 261.231 130.222 261.231 127.932ZM321.187 136.703L296.194 142.934V62.438L321.187 56.2064V136.703ZM403.078 116.285L379.543 122.153L360.485 98.3554C360.138 97.9411 359.86 97.259 359.652 96.3092C359.443 95.3594 359.305 94.0703 359.235 92.4419L358.714 92.5717V127.346L333.721 133.578V53.0814L357.256 47.2133L376.314 71.0111C376.661 71.4254 376.939 72.1075 377.147 73.0573C377.356 74.0071 377.494 75.2962 377.564 76.9245L378.085 76.7947V42.0203L403.078 35.7887V116.285ZM465.576 51.6534V70.3286L440.583 76.5602V86.3271L471.2 78.6933V99.3004L415.589 113.166V32.6694L470.575 18.9599L467.451 40.3459L440.583 47.0449V57.885L465.576 51.6534Z" fill="#FAA41A"/>
</g>
<g filter="url(#filter1_d_184_4)">
<path d="M26.9695 293.322L5.75855 298.61V230.297L26.9695 225.008V293.322ZM96.4664 275.994L76.4928 280.974L60.3194 260.778C60.0249 260.426 59.7892 259.848 59.6124 259.042C59.4357 258.236 59.3178 257.142 59.2589 255.76L58.817 255.87V285.381L37.6061 290.67V222.356L57.5797 217.376L73.7531 237.572C74.0476 237.924 74.2833 238.503 74.4601 239.309C74.6368 240.115 74.7547 241.209 74.8136 242.591L75.2555 242.481V212.969L96.4664 207.681V275.994ZM165.944 258.671L145.97 263.651L129.797 243.455C129.502 243.104 129.267 242.525 129.09 241.719C128.913 240.913 128.795 239.819 128.737 238.437L128.295 238.547V268.058L107.084 273.347V205.034L127.057 200.054L143.231 220.25C143.525 220.601 143.761 221.18 143.938 221.986C144.114 222.792 144.232 223.886 144.291 225.268L144.733 225.158V195.646L165.944 190.358V258.671ZM173.38 222.752C173.38 216.497 173.88 210.999 174.882 206.255C175.943 201.437 177.681 197.269 180.096 193.752C182.571 190.22 185.812 187.256 189.818 184.861C193.825 182.465 198.774 180.533 204.666 179.064C210.617 177.58 215.566 177.045 219.513 177.457C223.52 177.855 226.731 179.21 229.147 181.522C231.621 183.82 233.359 187.121 234.361 191.426C235.422 195.655 235.952 200.896 235.952 207.151C235.952 213.102 235.481 218.441 234.538 223.17C233.595 227.838 231.916 231.961 229.5 235.538C227.143 239.101 223.932 242.149 219.867 244.68C215.86 247.137 210.793 249.129 204.666 250.657C198.538 252.184 193.442 252.726 189.376 252.283C185.37 251.763 182.159 250.317 179.743 247.944C177.386 245.556 175.736 242.264 174.794 238.066C173.851 233.807 173.38 228.703 173.38 222.752ZM196.181 205.681V234.1L205.019 231.896C207.965 231.162 210.057 230.306 211.294 229.33C212.59 228.278 213.239 226.507 213.239 224.017V195.599L204.312 197.825C201.484 198.53 199.422 199.408 198.126 200.46C196.83 201.451 196.181 203.192 196.181 205.681ZM270.407 207.669L279.51 162.043L301.87 156.468L285.432 228.88L254.499 236.592L238.061 172.377L260.42 166.802L269.435 207.911L270.407 207.669ZM325.351 208.088L322.964 219.522L300.605 225.097L317.75 152.508L350.539 144.333L367.684 208.372L345.324 213.947L342.85 203.725L325.351 208.088ZM334.719 169.227L333.57 169.514L329.239 189.721L338.961 187.297L334.719 169.227ZM418.983 127.268V144.756L403.605 148.591V199.416L382.395 204.704V153.879L367.017 157.713V140.225L418.983 127.268ZM467.204 141.933V157.782L445.993 163.07V171.359L471.976 164.881V182.369L424.782 194.136V125.822L471.446 114.188L468.795 132.337L445.993 138.022V147.222L467.204 141.933Z" fill="#FAA41A"/>
</g>
<g filter="url(#filter2_d_184_4)">
<path d="M67.7473 365.383L69.918 389.947C63.7275 394.059 56.0899 397.248 47.0051 399.513C38.4028 401.658 31.2877 402.479 25.66 401.976C20.0323 401.391 15.5703 399.521 12.274 396.365C8.97779 393.21 6.64631 388.737 5.27958 382.946C3.99324 377.136 3.35007 370.046 3.35007 361.677C3.35007 353.557 3.95304 346.323 5.15898 339.973C6.44532 333.521 8.69641 327.864 11.9123 323.002C15.1281 318.058 19.4695 313.868 24.9364 310.434C30.4837 306.979 37.4782 304.2 45.9198 302.095C47.7689 301.634 49.819 301.247 52.0701 300.934C54.4016 300.519 56.6527 300.206 58.8234 299.996C61.0744 299.766 63.1647 299.659 65.0943 299.675C67.1042 299.589 68.7121 299.685 69.918 299.964L65.5766 323.915C59.1449 324.11 53.3966 324.839 48.3317 326.102C43.1059 327.405 39.4881 328.804 37.4782 330.3C35.4683 331.795 34.4633 334.034 34.4633 337.017V376.043C36.3125 375.996 38.1616 375.866 40.0107 375.654C41.9402 375.339 43.9099 374.93 45.9198 374.429C53.9594 372.425 61.2352 369.409 67.7473 365.383ZM143.192 342.222L158.869 369.385L127.033 377.323L115.214 352.554L108.943 354.117V381.833L80.0008 389.049V295.835L125.585 284.469C146.328 279.297 156.699 287.607 156.699 309.399C156.699 324.313 152.196 335.254 143.192 342.222ZM115.576 310.828L108.943 312.481V331.124L115.576 329.47C119.114 328.588 121.646 327.584 123.174 326.458C124.781 325.311 125.585 323.412 125.585 320.761V314.546C125.585 311.895 124.781 310.397 123.174 310.052C121.646 309.687 119.114 309.946 115.576 310.828ZM226.918 295.62V317.245L197.976 324.462V335.772L233.43 326.932V350.795L169.033 366.851V273.636L232.707 257.761L229.089 282.526L197.976 290.283V302.836L226.918 295.62ZM270.542 326.752L267.286 342.354L236.776 349.961L260.171 250.913L304.912 239.758L328.307 327.139L297.797 334.746L294.42 320.798L270.542 326.752ZM283.325 273.726L281.758 274.117L275.848 301.69L289.114 298.383L283.325 273.726ZM398.305 216.472V240.335L377.322 245.567V314.919L348.379 322.135V252.783L327.396 258.015V234.152L398.305 216.472ZM464.102 236.483V258.109L435.16 265.325V276.635L470.615 267.795V291.658L406.217 307.714V214.5L469.891 198.624L466.273 223.389L435.16 231.146V243.699L464.102 236.483Z" fill="#FAA41A"/>
</g>
<defs>
<filter id="filter0_d_184_4" x="6.24841" y="16.8722" width="470.951" height="204.286" filterUnits="userSpaceOnUse" color-interpolation-filters="sRGB">
<feFlood flood-opacity="0" result="BackgroundImageFix"/>
<feColorMatrix in="SourceAlpha" type="matrix" values="0 0 0 0 0 0 0 0 0 0 0 0 0 0 0 0 0 0 127 0" result="hardAlpha"/>
<feOffset dx="6" dy="4"/>
<feComposite in2="hardAlpha" operator="out"/>
<feColorMatrix type="matrix" values="0 0 0 0 0 0 0 0 0 0 0 0 0 0 0 0 0 0 1 0"/>
<feBlend mode="normal" in2="BackgroundImageFix" result="effect1_dropShadow_184_4"/>
<feBlend mode="normal" in="SourceGraphic" in2="effect1_dropShadow_184_4" result="shape"/>
</filter>
<filter id="filter1_d_184_4" x="5.75854" y="112.416" width="472.218" height="191.834" filterUnits="userSpaceOnUse" color-interpolation-filters="sRGB">
<feFlood flood-opacity="0" result="BackgroundImageFix"/>
<feColorMatrix in="SourceAlpha" type="matrix" values="0 0 0 0 0 0 0 0 0 0 0 0 0 0 0 0 0 0 127 0" result="hardAlpha"/>
<feOffset dx="6" dy="4"/>
<feComposite in2="hardAlpha" operator="out"/>
<feColorMatrix type="matrix" values="0 0 0 0 0 0 0 0 0 0 0 0 0 0 0 0 0 0 1 0"/>
<feBlend mode="normal" in2="BackgroundImageFix" result="effect1_dropShadow_184_4"/>
<feBlend mode="normal" in="SourceGraphic" in2="effect1_dropShadow_184_4" result="shape"/>
</filter>
<filter id="filter2_d_184_4" x="3.3501" y="196.207" width="473.264" height="218.191" filterUnits="userSpaceOnUse" color-interpolation-filters="sRGB">
<feFlood flood-opacity="0" result="BackgroundImageFix"/>
<feColorMatrix in="SourceAlpha" type="matrix" values="0 0 0 0 0 0 0 0 0 0 0 0 0 0 0 0 0 0 127 0" result="hardAlpha"/>
<feOffset dx="6" dy="4"/>
<feComposite in2="hardAlpha" operator="out"/>
<feColorMatrix type="matrix" values="0 0 0 0 0 0 0 0 0 0 0 0 0 0 0 0 0 0 1 0"/>
<feBlend mode="normal" in2="BackgroundImageFix" result="effect1_dropShadow_184_4"/>
<feBlend mode="normal" in="SourceGraphic" in2="effect1_dropShadow_184_4" result="shape"/>
</filter>
</defs>
</svg>
